<?xml version="1.0" encoding="UTF-8" standalone="no"?>
<!-- Created with Inkscape (http://www.inkscape.org/) -->

<svg
   width="16"
   height="16"
   viewBox="0 0 4.2333332 4.2333333"
   version="1.1"
   id="svg5"
   inkscape:version="1.2.2 (b0a8486541, 2022-12-01)"
   sodipodi:docname="favicon.svg"
   inkscape:export-filename="favicon.png"
   inkscape:export-xdpi="96"
   inkscape:export-ydpi="96"
   xmlns:inkscape="http://www.inkscape.org/namespaces/inkscape"
   xmlns:sodipodi="http://sodipodi.sourceforge.net/DTD/sodipodi-0.dtd"
   xmlns="http://www.w3.org/2000/svg"
   xmlns:svg="http://www.w3.org/2000/svg">
  <sodipodi:namedview
     id="namedview7"
     pagecolor="#505050"
     bordercolor="#eeeeee"
     borderopacity="1"
     inkscape:showpageshadow="0"
     inkscape:pageopacity="0"
     inkscape:pagecheckerboard="0"
     inkscape:deskcolor="#505050"
     inkscape:document-units="px"
     showgrid="false"
     inkscape:zoom="11.313708"
     inkscape:cx="-22.98097"
     inkscape:cy="4.1100582"
     inkscape:window-width="2560"
     inkscape:window-height="1392"
     inkscape:window-x="0"
     inkscape:window-y="0"
     inkscape:window-maximized="1"
     inkscape:current-layer="layer1">
    <inkscape:grid
       type="xygrid"
       id="grid256"
       empspacing="4" />
  </sodipodi:namedview>
  <defs
     id="defs2" />
  <g
     inkscape:label="Layer 1"
     inkscape:groupmode="layer"
     id="layer1">
    <rect
       style="fill:#ffffff;stroke-width:0.264583;stroke-linejoin:round;paint-order:stroke markers fill"
       id="rect360"
       width="4.2333331"
       height="4.2333331"
       x="0"
       y="0" />
    <path
       id="path518"
       style="fill:#000000;stroke-width:0.264583;stroke-linejoin:round;paint-order:stroke markers fill"
       d="m 2.1166666,0.26458333 c -0.08855,2.1221e-4 -0.1769717,0.006775 -0.2645833,0.019637 V 3.1408935 c 0.086403,0.022483 0.1753033,0.033943 0.2645833,0.034106 0.08928,-1.633e-4 0.1781806,-0.011623 0.2645834,-0.034106 V 0.82062173 c 0.6158855,0.12571708 1.0582652,0.66745937 1.0583333,1.29604487 1e-7,0.7306267 -0.59229,1.3229168 -1.3229167,1.3229167 -0.7306267,0 -1.32291668,-0.59229 -1.32291662,-1.3229167 C 0.79421793,1.5910731 1.1057853,1.1156083 1.5875,0.90537108 V 0.34209798 C 0.80268929,0.5760833 0.26472055,1.2977179 0.26458333,2.1166666 c 0,1.0228773 0.82920597,1.8520833 1.85208327,1.8520833 1.0228774,0 1.8520833,-0.8292059 1.8520833,-1.8520833 0,-1.0228773 -0.829206,-1.85208327 -1.8520833,-1.85208327 z"
       sodipodi:nodetypes="cccccccsccccssc" />
    <rect
       style="fill:#ffffff;stroke-width:0.264583;stroke-linejoin:round;paint-order:stroke markers fill"
       id="rect814"
       width="6.3499999"
       height="4.2333331"
       x="-1.0583333"
       y="-5.2916665" />
    <path
       id="path816"
       style="fill:#000000;stroke-width:0.264583;stroke-linejoin:round;paint-order:stroke markers fill"
       d="M 1.0583333 -5.0270832 A 1.8520833 1.8520833 0 0 0 -0.54570311 -4.1010416 A 1.8520833 1.8520833 0 0 0 -0.54570311 -2.2489583 A 1.8520833 1.8520833 0 0 0 1.0583333 -1.3229166 L 3.1749999 -1.3229166 A 1.8520833 1.8520833 0 0 0 4.7790364 -2.2489583 A 1.8520833 1.8520833 0 0 0 4.7790364 -4.1010416 A 1.8520833 1.8520833 0 0 0 3.1749999 -5.0270832 L 1.8520833 -5.0270832 L 1.8520833 -4.4979166 L 1.8520833 -2.1166666 L 2.38125 -2.1166666 L 2.38125 -4.4979166 L 3.1749999 -4.4979166 A 1.3229166 1.3229166 0 0 1 4.3206664 -3.8364583 A 1.3229166 1.3229166 0 0 1 4.3206664 -2.5135416 A 1.3229166 1.3229166 0 0 1 3.1749999 -1.8520833 L 1.0583333 -1.8520833 A 1.3229166 1.3229166 0 0 1 -0.087333169 -2.5135416 A 1.3229166 1.3229166 0 0 1 -0.087333169 -3.8364583 A 1.3229166 1.3229166 0 0 1 1.0583333 -4.4979166 L 1.5875 -4.4979166 L 1.5875 -5.0270832 L 1.0583333 -5.0270832 z " />
  </g>
</svg>
