<?xml version="1.0" encoding="UTF-8" standalone="no"?>
<!-- Created with Inkscape (http://www.inkscape.org/) -->

<svg
   width="200"
   height="40"
   viewBox="0 0 52.916665 10.583334"
   version="1.1"
   id="svg284"
   inkscape:version="1.2.2 (b0a8486541, 2022-12-01)"
   sodipodi:docname="contact.svg"
   xmlns:inkscape="http://www.inkscape.org/namespaces/inkscape"
   xmlns:sodipodi="http://sodipodi.sourceforge.net/DTD/sodipodi-0.dtd"
   xmlns="http://www.w3.org/2000/svg"
   xmlns:svg="http://www.w3.org/2000/svg">
  <sodipodi:namedview
     id="namedview286"
     pagecolor="#505050"
     bordercolor="#eeeeee"
     borderopacity="1"
     inkscape:showpageshadow="0"
     inkscape:pageopacity="0"
     inkscape:pagecheckerboard="0"
     inkscape:deskcolor="#505050"
     inkscape:document-units="px"
     showgrid="true"
     inkscape:zoom="21.551515"
     inkscape:cx="31.94671"
     inkscape:cy="13.711333"
     inkscape:window-width="2560"
     inkscape:window-height="1392"
     inkscape:window-x="0"
     inkscape:window-y="0"
     inkscape:window-maximized="1"
     inkscape:current-layer="layer1">
    <inkscape:grid
       type="xygrid"
       id="grid405"
       empspacing="4"
       originx="0"
       originy="0" />
  </sodipodi:namedview>
  <defs
     id="defs281">
    <rect
       x="15"
       y="20"
       width="162.99213"
       height="41.248592"
       id="rect1107" />
    <rect
       x="0"
       y="0"
       width="150"
       height="24"
       id="rect461" />
  </defs>
  <g
     inkscape:label="Layer 1"
     inkscape:groupmode="layer"
     id="layer1">
    <g
       aria-label="(410) 790-2080"
       transform="matrix(0.29765671,0,0,0.29765671,3.538767,-1.3217213)"
       id="text459"
       style="font-size:21.3333px;font-family:Liver;-inkscape-font-specification:Liver;white-space:pre;shape-inside:url(#rect461);fill:#0d0d0d;stroke-linejoin:round;paint-order:stroke markers fill">
      <path
         d="m 22.333417,6.6666561 v 1.3541646 q -1.708331,0 -2.187497,0.9999984 -0.479166,0.9999989 -0.479166,4.3333269 0,3.291661 0.458333,4.312493 0.458332,0.999998 2.08333,0.999998 h 0.125 v 1.354165 h -0.08333 q -2.416663,0 -3.166661,-1.312498 -0.749999,-1.312498 -0.749999,-5.354158 0,-2.104164 0.145833,-3.312495 0.145833,-1.2083316 0.604166,-1.999997 0.458332,-0.8124988 1.208331,-1.0833317 0.749999,-0.2916662 2.041664,-0.2916662 z"
         style="text-align:center;text-anchor:middle;fill:#ffffff"
         id="path675" />
      <path
         d="m 26.33341,7.9999874 h 1.333331 l -2.666662,6.6666566 h 3.999994 V 9.3333186 h 1.333331 v 5.3333254 h 1.333331 v 1.333331 h -1.333331 v 2.666662 h -1.333331 v -2.666662 h -5.333325 v -1.333331 z"
         style="text-align:center;text-anchor:middle;fill:#ffffff"
         id="path677" />
      <path
         d="m 34.333397,7.9999874 h 1.333331 v 9.3333186 h 1.333332 v 1.333331 h -3.999994 v -1.333331 h 1.333331 v -7.270822 q -0.312499,0.520833 -1.333331,0.583333 V 9.3333186 q 0.749999,0 1.041665,-0.2916662 0.291666,-0.2916662 0.291666,-1.041665 z"
         style="text-align:center;text-anchor:middle;fill:#ffffff"
         id="path679" />
      <path
         d="m 40.625055,8.1249872 q 0.645833,-0.1249998 1.708331,-0.1249998 1.062498,0 1.687497,0.1249998 0.645833,0.1041665 1.145832,0.3958327 0.499999,0.2916662 0.729165,0.9374985 0.229167,0.6249986 0.333333,1.5208306 0.104167,0.895832 0.104167,2.354163 0,1.458331 -0.104167,2.354163 -0.104166,0.895832 -0.333333,1.541664 -0.229166,0.624999 -0.729165,0.916666 -0.499999,0.291666 -1.145832,0.416666 -0.624999,0.104166 -1.687497,0.104166 -1.062498,0 -1.708331,-0.104166 -0.624999,-0.125 -1.124998,-0.416666 -0.499999,-0.291667 -0.729165,-0.916666 -0.229167,-0.645832 -0.333333,-1.541664 -0.104167,-0.895832 -0.104167,-2.354163 0,-1.458331 0.104167,-2.354163 0.104166,-0.895832 0.333333,-1.5208306 0.229166,-0.6458323 0.729165,-0.9374985 0.499999,-0.2916662 1.124998,-0.3958327 z m 1.708331,1.2083314 q -0.958332,0 -1.416664,0.1041665 -0.458333,0.083333 -0.791666,0.5416658 -0.312499,0.4374991 -0.395833,1.1666651 -0.0625,0.729165 -0.0625,2.187496 0,0.937499 0.02083,1.312498 l 5.166658,-3.874994 Q 44.666716,9.8541511 44.145883,9.6041515 43.625051,9.3333186 42.333386,9.3333186 Z m 2.645829,2.6874954 -5.166658,3.874994 q 0.187499,0.916665 0.708332,1.187498 0.520832,0.25 1.812497,0.25 0.958332,0 1.416664,-0.08333 0.458333,-0.104167 0.770833,-0.541666 0.333332,-0.458333 0.395832,-1.187498 0.08333,-0.729166 0.08333,-2.187497 0,-0.937498 -0.02083,-1.312498 z"
         style="text-align:center;text-anchor:middle;fill:#ffffff"
         id="path681" />
      <path
         d="m 47.666709,6.6666561 q 1.291665,0 2.041664,0.2708329 0.770832,0.2708329 1.229164,1.0833317 0.458333,0.7916654 0.604166,2.0208303 0.145833,1.208331 0.145833,3.312495 0,3.999993 -0.749999,5.333324 -0.729165,1.312498 -3.124995,1.312498 h -0.145833 v -1.333331 h 0.125 q 1.624997,0 2.08333,-0.999998 0.458333,-1.020832 0.458333,-4.312493 0,-3.333328 -0.479166,-4.3333269 Q 49.37504,7.9999874 47.666709,7.9999874 Z"
         style="text-align:center;text-anchor:middle;fill:#ffffff"
         id="path683" />
      <path
         d="m 58.333362,7.9999874 h 7.999987 v 1.3333312 l -5.333325,9.3333184 h -1.333331 l 5.333325,-9.3333184 h -6.666656 z"
         style="text-align:center;text-anchor:middle;fill:#ffffff"
         id="path685" />
      <path
         d="m 71.666672,18.666637 q -0.895832,0 -1.729164,-0.166666 -0.833332,-0.166667 -1.229164,-0.333333 l -0.375,-0.166666 v -0.666666 h 3.333328 q 0.937499,0 1.395831,-0.08333 0.458333,-0.104167 0.770833,-0.520833 0.333332,-0.437499 0.416666,-1.145831 0.08333,-0.708332 0.08333,-2.104164 -0.3125,0.666666 -1.083332,0.937499 -0.770832,0.25 -2.249996,0.25 -1.999997,0 -2.666663,-0.666666 -0.666665,-0.666666 -0.666665,-2.666663 0,-2.0208297 0.749998,-2.666662 0.770833,-0.6666656 3.249995,-0.6666656 1.062499,0 1.687498,0.1249998 0.645832,0.1041665 1.145831,0.3958327 Q 75,8.8124861 75.229167,9.4583184 q 0.229166,0.6249986 0.333332,1.5208306 0.104167,0.895832 0.104167,2.354163 0,1.458331 -0.104167,2.354163 -0.104166,0.895832 -0.333332,1.541664 Q 75,17.854138 74.500001,18.145805 q -0.499999,0.291666 -1.145831,0.416666 -0.624999,0.104166 -1.687498,0.104166 z m 0,-5.333325 q 1.687498,0 2.166664,-0.270833 0.499999,-0.270833 0.499999,-1.062498 0,-1.749997 -0.458333,-2.2083298 -0.458332,-0.4583326 -2.20833,-0.4583326 -1.729164,0 -2.20833,0.3749994 -0.458332,0.354166 -0.458332,1.624997 0,1.270832 0.458332,1.645831 0.479166,0.354166 2.20833,0.354166 z"
         style="text-align:center;text-anchor:middle;fill:#ffffff"
         id="path687" />
      <path
         d="m 79.291658,8.1249872 q 0.645833,-0.1249998 1.708331,-0.1249998 1.062498,0 1.687497,0.1249998 0.645833,0.1041665 1.145832,0.3958327 0.499999,0.2916662 0.729165,0.9374985 0.229167,0.6249986 0.333333,1.5208306 0.104167,0.895832 0.104167,2.354163 0,1.458331 -0.104167,2.354163 -0.104166,0.895832 -0.333333,1.541664 -0.229166,0.624999 -0.729165,0.916666 -0.499999,0.291666 -1.145832,0.416666 -0.624999,0.104166 -1.687497,0.104166 -1.062498,0 -1.708331,-0.104166 -0.624999,-0.125 -1.124998,-0.416666 -0.499999,-0.291667 -0.729165,-0.916666 -0.229167,-0.645832 -0.333333,-1.541664 -0.104167,-0.895832 -0.104167,-2.354163 0,-1.458331 0.104167,-2.354163 0.104166,-0.895832 0.333333,-1.5208306 0.229166,-0.6458323 0.729165,-0.9374985 0.499999,-0.2916662 1.124998,-0.3958327 z m 1.708331,1.2083314 q -0.958332,0 -1.416664,0.1041665 -0.458333,0.083333 -0.791666,0.5416658 -0.312499,0.4374991 -0.395832,1.1666651 -0.0625,0.729165 -0.0625,2.187496 0,0.937499 0.02083,1.312498 l 5.166658,-3.874994 Q 83.333319,9.8541511 82.812486,9.6041515 82.291654,9.3333186 80.999989,9.3333186 Z m 2.645829,2.6874954 -5.166658,3.874994 q 0.187499,0.916665 0.708332,1.187498 0.520832,0.25 1.812497,0.25 0.958332,0 1.416665,-0.08333 0.458332,-0.104167 0.770832,-0.541666 0.333332,-0.458333 0.395832,-1.187498 0.08333,-0.729166 0.08333,-2.187497 0,-0.937498 -0.02083,-1.312498 z"
         style="text-align:center;text-anchor:middle;fill:#ffffff"
         id="path689" />
      <path
         d="m 86.333316,13.333312 v -1.333331 h 6.666656 v 1.333331 z"
         style="text-align:center;text-anchor:middle;fill:#ffffff"
         id="path691" />
      <path
         d="m 98.333294,7.9999874 q 2.479166,0 3.229166,0.6666656 0.77083,0.6458323 0.77083,2.666662 0,2.020831 -0.77083,2.687496 -0.75,0.645833 -3.229166,0.645833 -1.749997,0 -2.208329,0.458332 -0.458333,0.458333 -0.458333,2.20833 h 6.666658 v 1.333331 h -7.999989 v -1.333331 q 0,-2.499996 0.749999,-3.249995 0.749998,-0.749999 3.249994,-0.749999 1.729166,0 2.187496,-0.354166 0.47917,-0.374999 0.47917,-1.645831 0,-1.270831 -0.47917,-1.624997 -0.45833,-0.3749994 -2.187496,-0.3749994 -1.687497,0 -2.187496,0.2708329 -0.479166,0.2708329 -0.479166,1.0624985 h -1.333331 q 0,-1.5416644 0.770832,-2.1041635 0.791665,-0.5624991 3.229161,-0.5624991 z"
         style="text-align:center;text-anchor:middle;fill:#ffffff"
         id="path693" />
      <path
         d="m 105.95828,8.1249872 q 0.64584,-0.1249998 1.70834,-0.1249998 1.06249,0 1.68749,0.1249998 0.64583,0.1041665 1.14583,0.3958327 0.5,0.2916662 0.72917,0.9374985 0.22917,0.6249986 0.33333,1.5208306 0.10417,0.895832 0.10417,2.354163 0,1.458331 -0.10417,2.354163 -0.10416,0.895832 -0.33333,1.541664 -0.22917,0.624999 -0.72917,0.916666 -0.5,0.291666 -1.14583,0.416666 -0.625,0.104166 -1.68749,0.104166 -1.0625,0 -1.70834,-0.104166 -0.62499,-0.125 -1.12499,-0.416666 -0.5,-0.291667 -0.72917,-0.916666 -0.22917,-0.645832 -0.33333,-1.541664 -0.10417,-0.895832 -0.10417,-2.354163 0,-1.458331 0.10417,-2.354163 0.10416,-0.895832 0.33333,-1.5208306 0.22917,-0.6458323 0.72917,-0.9374985 0.5,-0.2916662 1.12499,-0.3958327 z m 1.70834,1.2083314 q -0.95834,0 -1.41667,0.1041665 -0.45833,0.083333 -0.79166,0.5416658 -0.3125,0.4374991 -0.39584,1.1666651 -0.0625,0.729165 -0.0625,2.187496 0,0.937499 0.0208,1.312498 l 5.16665,-3.874994 q -0.1875,-0.9166649 -0.70833,-1.1666645 -0.52083,-0.2708329 -1.81249,-0.2708329 z m 2.64582,2.6874954 -5.16665,3.874994 q 0.1875,0.916665 0.70833,1.187498 0.52083,0.25 1.8125,0.25 0.95833,0 1.41666,-0.08333 0.45833,-0.104167 0.77083,-0.541666 0.33333,-0.458333 0.39583,-1.187498 0.0833,-0.729166 0.0833,-2.187497 0,-0.937498 -0.0208,-1.312498 z"
         style="text-align:center;text-anchor:middle;fill:#ffffff"
         id="path695" />
      <path
         d="m 114.33327,10.66665 q 0,-1.4999978 0.58334,-2.0833302 0.58333,-0.5833324 2.08333,-0.5833324 1.49999,0 2.08333,0.5833324 0.58333,0.5833324 0.58333,2.0833302 0,1.291664 -0.60417,1.812497 1.125,0.208333 1.52083,0.854165 0.41667,0.624999 0.41667,1.958331 0,2.062496 -0.77083,2.729162 -0.75,0.645832 -3.22916,0.645832 -2.47917,0 -3.25,-0.645832 -0.75,-0.666666 -0.75,-2.729162 0,-1.333332 0.39583,-1.958331 0.41667,-0.645832 1.54167,-0.854165 -0.60417,-0.520833 -0.60417,-1.812497 z m 3.70833,-1.0416652 q -0.29167,-0.2916662 -1.04166,-0.2916662 -0.75,0 -1.04167,0.2916662 -0.29167,0.2916662 -0.29167,1.0416652 0,0.749999 0.29167,1.041665 0.29167,0.291666 1.04167,0.291666 0.74999,0 1.04166,-0.291666 0.29167,-0.291666 0.29167,-1.041665 0,-0.749999 -0.29167,-1.0416652 z m 1.14583,4.0833272 q -0.45833,-0.375 -2.18749,-0.375 -1.72917,0 -2.20833,0.375 -0.45834,0.354166 -0.45834,1.624997 0,1.270831 0.45834,1.645831 0.47916,0.354166 2.20833,0.354166 1.72916,0 2.18749,-0.354166 0.47917,-0.375 0.47917,-1.645831 0,-1.270831 -0.47917,-1.624997 z"
         style="text-align:center;text-anchor:middle;fill:#ffffff"
         id="path697" />
      <path
         d="m 124.62493,8.1249872 q 0.64583,-0.1249998 1.70833,-0.1249998 1.06249,0 1.68749,0.1249998 0.64584,0.1041665 1.14584,0.3958327 0.49999,0.2916662 0.72916,0.9374985 0.22917,0.6249986 0.33333,1.5208306 0.10417,0.895832 0.10417,2.354163 0,1.458331 -0.10417,2.354163 -0.10416,0.895832 -0.33333,1.541664 -0.22917,0.624999 -0.72916,0.916666 -0.5,0.291666 -1.14584,0.416666 -0.625,0.104166 -1.68749,0.104166 -1.0625,0 -1.70833,-0.104166 -0.625,-0.125 -1.125,-0.416666 -0.5,-0.291667 -0.72917,-0.916666 -0.22916,-0.645832 -0.33333,-1.541664 -0.10417,-0.895832 -0.10417,-2.354163 0,-1.458331 0.10417,-2.354163 0.10417,-0.895832 0.33333,-1.5208306 0.22917,-0.6458323 0.72917,-0.9374985 0.5,-0.2916662 1.125,-0.3958327 z m 1.70833,1.2083314 q -0.95834,0 -1.41667,0.1041665 -0.45833,0.083333 -0.79166,0.5416658 -0.3125,0.4374991 -0.39584,1.1666651 -0.0625,0.729165 -0.0625,2.187496 0,0.937499 0.0208,1.312498 l 5.16666,-3.874994 q -0.1875,-0.9166649 -0.70834,-1.1666645 -0.52083,-0.2708329 -1.81249,-0.2708329 z m 2.64583,2.6874954 -5.16666,3.874994 q 0.1875,0.916665 0.70833,1.187498 0.52083,0.25 1.8125,0.25 0.95833,0 1.41666,-0.08333 0.45833,-0.104167 0.77083,-0.541666 0.33334,-0.458333 0.39584,-1.187498 0.0833,-0.729166 0.0833,-2.187497 0,-0.937498 -0.0208,-1.312498 z"
         style="text-align:center;text-anchor:middle;fill:#ffffff"
         id="path699" />
    </g>
    <path
       id="rect857"
       style="fill:#ffffff;stroke-width:0.264583;stroke-linejoin:round;paint-order:stroke markers fill"
       d="m 4.4979168,0.52916667 c -0.146579,0 -0.2645834,0.11800445 -0.2645834,0.26458333 v 3.7041666 c 0,0.146579 0.1180044,0.2645834 0.2645834,0.2645834 h 1.8520833 c 0.1465789,0 0.2645833,-0.1180044 0.2645833,-0.2645834 V 0.79375 c 0,-0.14657888 -0.1180044,-0.26458333 -0.2645833,-0.26458333 z m 0,0.26458333 h 1.8520833 v 3.175 H 4.4979168 Z m 0.9260416,3.4395833 c 0.073063,0 0.1322917,0.059229 0.1322917,0.1322917 0,0.073063 -0.059229,0.1322916 -0.1322917,0.1322916 -0.073063,0 -0.1322916,-0.059229 -0.1322916,-0.1322916 0,-0.073063 0.059229,-0.1322917 0.1322916,-0.1322917 z"
       sodipodi:nodetypes="ssssssssscccccsssss" />
    <rect
       style="fill:#ffffff;stroke-width:0.264583;stroke-linejoin:round;paint-order:stroke markers fill"
       id="rect1016"
       width="1.3229165"
       height="0.26458323"
       x="7.1437502"
       y="2.1166666" />
    <rect
       style="fill:#ffffff;stroke-width:0.264583;stroke-linejoin:round;paint-order:stroke markers fill"
       id="rect1018"
       width="1.3229165"
       height="0.26458329"
       x="7.1437502"
       y="2.9104166" />
    <text
       xml:space="preserve"
       transform="matrix(0.26458334,0,0,0.26458334,4.8075971,-0.97012954)"
       id="text1105"
       style="font-size:21.3333px;font-family:Liver;-inkscape-font-specification:Liver;text-align:center;white-space:pre;shape-inside:url(#rect1107);display:inline;fill:#ffffff;stroke-linejoin:round;paint-order:stroke markers fill"><tspan
         x="15.829554"
         y="39.729136"
         id="tspan60980">chrisxdeboy@gmail.com</tspan></text>
    <rect
       style="fill:#ffffff;stroke-width:0.264583;stroke-linejoin:round;paint-order:stroke markers fill"
       id="rect1111"
       width="1.3229165"
       height="0.26458323"
       x="7.1437502"
       y="7.4083333" />
    <rect
       style="fill:#ffffff;stroke-width:0.264583;stroke-linejoin:round;paint-order:stroke markers fill"
       id="rect1113"
       width="1.3229165"
       height="0.26458329"
       x="7.1437502"
       y="8.2020836" />
    <path
       id="rect1863"
       style="fill:#ffffff;stroke:none;stroke-width:0.264583;stroke-linecap:round;stroke-linejoin:round;paint-order:stroke markers fill"
       d="M 1.2702067 6.3500001 C 2.0968349 7.0113126 2.9234729 7.672618 3.7501588 8.3338584 L 3.9217245 8.3338584 C 4.7484416 7.672657 5.5749972 7.0112487 6.4016765 6.3500001 L 1.2702067 6.3500001 z M 1.0583333 6.518982 L 1.0583333 9.3560182 L 2.8303182 7.9375001 L 1.0583333 6.518982 z M 6.6145834 6.5194988 L 4.8420818 7.9375001 L 6.6145834 9.3555014 L 6.6145834 6.5194988 z M 3.0421916 8.1075156 L 1.2702067 9.5250001 L 6.4016765 9.5250001 L 4.6296916 8.1075156 L 4.0509156 8.5705364 C 4.0275796 8.5891814 3.99862 8.5993807 3.9687501 8.5994752 L 3.7052003 8.5994752 C 3.6746213 8.5998532 3.6448566 8.5896274 3.6209677 8.5705364 L 3.0421916 8.1075156 z " />
  </g>
</svg>
