<?xml version="1.0" encoding="UTF-8" standalone="no"?>
<!-- Created with Inkscape (http://www.inkscape.org/) -->

<svg
   width="200"
   height="60"
   viewBox="0 0 52.916665 15.875001"
   version="1.1"
   id="svg284"
   inkscape:version="1.2.2 (b0a8486541, 2022-12-01)"
   sodipodi:docname="contact.svg"
   xml:space="preserve"
   xmlns:inkscape="http://www.inkscape.org/namespaces/inkscape"
   xmlns:sodipodi="http://sodipodi.sourceforge.net/DTD/sodipodi-0.dtd"
   xmlns="http://www.w3.org/2000/svg"
   xmlns:svg="http://www.w3.org/2000/svg"><sodipodi:namedview
     id="namedview286"
     pagecolor="#505050"
     bordercolor="#eeeeee"
     borderopacity="1"
     inkscape:showpageshadow="0"
     inkscape:pageopacity="0"
     inkscape:pagecheckerboard="0"
     inkscape:deskcolor="#505050"
     inkscape:document-units="px"
     showgrid="true"
     inkscape:zoom="2.6939394"
     inkscape:cx="31.366704"
     inkscape:cy="-1.2992126"
     inkscape:window-width="2560"
     inkscape:window-height="1392"
     inkscape:window-x="0"
     inkscape:window-y="0"
     inkscape:window-maximized="1"
     inkscape:current-layer="layer1"><inkscape:grid
       type="xygrid"
       id="grid405"
       empspacing="4"
       originx="0"
       originy="0" /></sodipodi:namedview><defs
     id="defs281"><rect
       x="15"
       y="20"
       width="162.99213"
       height="41.248592"
       id="rect1107" /><rect
       x="0"
       y="0"
       width="150"
       height="24"
       id="rect461" /><rect
       x="15"
       y="20"
       width="162.99213"
       height="41.248592"
       id="rect617" /></defs><g
     inkscape:label="Layer 1"
     inkscape:groupmode="layer"
     id="layer1"><g
       aria-label="(410) 790-2080"
       transform="matrix(0.29765671,0,0,0.29765671,3.538767,-1.3217213)"
       id="text459"
       style="font-size:21.3333px;font-family:Liver;-inkscape-font-specification:Liver;white-space:pre;shape-inside:url(#rect461);fill:#0d0d0d;stroke-linejoin:round;paint-order:stroke markers fill"><path
         d="m 22.333417,6.6666561 v 1.3541646 q -1.708331,0 -2.187497,0.9999984 -0.479166,0.9999989 -0.479166,4.3333269 0,3.291661 0.458333,4.312493 0.458332,0.999998 2.08333,0.999998 h 0.125 v 1.354165 h -0.08333 q -2.416663,0 -3.166661,-1.312498 -0.749999,-1.312498 -0.749999,-5.354158 0,-2.104164 0.145833,-3.312495 0.145833,-1.2083316 0.604166,-1.999997 0.458332,-0.8124988 1.208331,-1.0833317 0.749999,-0.2916662 2.041664,-0.2916662 z"
         style="text-align:center;text-anchor:middle;fill:#ffffff"
         id="path675" /><path
         d="m 26.33341,7.9999874 h 1.333331 l -2.666662,6.6666566 h 3.999994 V 9.3333186 h 1.333331 v 5.3333254 h 1.333331 v 1.333331 h -1.333331 v 2.666662 h -1.333331 v -2.666662 h -5.333325 v -1.333331 z"
         style="text-align:center;text-anchor:middle;fill:#ffffff"
         id="path677" /><path
         d="m 34.333397,7.9999874 h 1.333331 v 9.3333186 h 1.333332 v 1.333331 h -3.999994 v -1.333331 h 1.333331 v -7.270822 q -0.312499,0.520833 -1.333331,0.583333 V 9.3333186 q 0.749999,0 1.041665,-0.2916662 0.291666,-0.2916662 0.291666,-1.041665 z"
         style="text-align:center;text-anchor:middle;fill:#ffffff"
         id="path679" /><path
         d="m 40.625055,8.1249872 q 0.645833,-0.1249998 1.708331,-0.1249998 1.062498,0 1.687497,0.1249998 0.645833,0.1041665 1.145832,0.3958327 0.499999,0.2916662 0.729165,0.9374985 0.229167,0.6249986 0.333333,1.5208306 0.104167,0.895832 0.104167,2.354163 0,1.458331 -0.104167,2.354163 -0.104166,0.895832 -0.333333,1.541664 -0.229166,0.624999 -0.729165,0.916666 -0.499999,0.291666 -1.145832,0.416666 -0.624999,0.104166 -1.687497,0.104166 -1.062498,0 -1.708331,-0.104166 -0.624999,-0.125 -1.124998,-0.416666 -0.499999,-0.291667 -0.729165,-0.916666 -0.229167,-0.645832 -0.333333,-1.541664 -0.104167,-0.895832 -0.104167,-2.354163 0,-1.458331 0.104167,-2.354163 0.104166,-0.895832 0.333333,-1.5208306 0.229166,-0.6458323 0.729165,-0.9374985 0.499999,-0.2916662 1.124998,-0.3958327 z m 1.708331,1.2083314 q -0.958332,0 -1.416664,0.1041665 -0.458333,0.083333 -0.791666,0.5416658 -0.312499,0.4374991 -0.395833,1.1666651 -0.0625,0.729165 -0.0625,2.187496 0,0.937499 0.02083,1.312498 l 5.166658,-3.874994 Q 44.666716,9.8541511 44.145883,9.6041515 43.625051,9.3333186 42.333386,9.3333186 Z m 2.645829,2.6874954 -5.166658,3.874994 q 0.187499,0.916665 0.708332,1.187498 0.520832,0.25 1.812497,0.25 0.958332,0 1.416664,-0.08333 0.458333,-0.104167 0.770833,-0.541666 0.333332,-0.458333 0.395832,-1.187498 0.08333,-0.729166 0.08333,-2.187497 0,-0.937498 -0.02083,-1.312498 z"
         style="text-align:center;text-anchor:middle;fill:#ffffff"
         id="path681" /><path
         d="m 47.666709,6.6666561 q 1.291665,0 2.041664,0.2708329 0.770832,0.2708329 1.229164,1.0833317 0.458333,0.7916654 0.604166,2.0208303 0.145833,1.208331 0.145833,3.312495 0,3.999993 -0.749999,5.333324 -0.729165,1.312498 -3.124995,1.312498 h -0.145833 v -1.333331 h 0.125 q 1.624997,0 2.08333,-0.999998 0.458333,-1.020832 0.458333,-4.312493 0,-3.333328 -0.479166,-4.3333269 Q 49.37504,7.9999874 47.666709,7.9999874 Z"
         style="text-align:center;text-anchor:middle;fill:#ffffff"
         id="path683" /><path
         d="m 58.333362,7.9999874 h 7.999987 v 1.3333312 l -5.333325,9.3333184 h -1.333331 l 5.333325,-9.3333184 h -6.666656 z"
         style="text-align:center;text-anchor:middle;fill:#ffffff"
         id="path685" /><path
         d="m 71.666672,18.666637 q -0.895832,0 -1.729164,-0.166666 -0.833332,-0.166667 -1.229164,-0.333333 l -0.375,-0.166666 v -0.666666 h 3.333328 q 0.937499,0 1.395831,-0.08333 0.458333,-0.104167 0.770833,-0.520833 0.333332,-0.437499 0.416666,-1.145831 0.08333,-0.708332 0.08333,-2.104164 -0.3125,0.666666 -1.083332,0.937499 -0.770832,0.25 -2.249996,0.25 -1.999997,0 -2.666663,-0.666666 -0.666665,-0.666666 -0.666665,-2.666663 0,-2.0208297 0.749998,-2.666662 0.770833,-0.6666656 3.249995,-0.6666656 1.062499,0 1.687498,0.1249998 0.645832,0.1041665 1.145831,0.3958327 Q 75,8.8124861 75.229167,9.4583184 q 0.229166,0.6249986 0.333332,1.5208306 0.104167,0.895832 0.104167,2.354163 0,1.458331 -0.104167,2.354163 -0.104166,0.895832 -0.333332,1.541664 Q 75,17.854138 74.500001,18.145805 q -0.499999,0.291666 -1.145831,0.416666 -0.624999,0.104166 -1.687498,0.104166 z m 0,-5.333325 q 1.687498,0 2.166664,-0.270833 0.499999,-0.270833 0.499999,-1.062498 0,-1.749997 -0.458333,-2.2083298 -0.458332,-0.4583326 -2.20833,-0.4583326 -1.729164,0 -2.20833,0.3749994 -0.458332,0.354166 -0.458332,1.624997 0,1.270832 0.458332,1.645831 0.479166,0.354166 2.20833,0.354166 z"
         style="text-align:center;text-anchor:middle;fill:#ffffff"
         id="path687" /><path
         d="m 79.291658,8.1249872 q 0.645833,-0.1249998 1.708331,-0.1249998 1.062498,0 1.687497,0.1249998 0.645833,0.1041665 1.145832,0.3958327 0.499999,0.2916662 0.729165,0.9374985 0.229167,0.6249986 0.333333,1.5208306 0.104167,0.895832 0.104167,2.354163 0,1.458331 -0.104167,2.354163 -0.104166,0.895832 -0.333333,1.541664 -0.229166,0.624999 -0.729165,0.916666 -0.499999,0.291666 -1.145832,0.416666 -0.624999,0.104166 -1.687497,0.104166 -1.062498,0 -1.708331,-0.104166 -0.624999,-0.125 -1.124998,-0.416666 -0.499999,-0.291667 -0.729165,-0.916666 -0.229167,-0.645832 -0.333333,-1.541664 -0.104167,-0.895832 -0.104167,-2.354163 0,-1.458331 0.104167,-2.354163 0.104166,-0.895832 0.333333,-1.5208306 0.229166,-0.6458323 0.729165,-0.9374985 0.499999,-0.2916662 1.124998,-0.3958327 z m 1.708331,1.2083314 q -0.958332,0 -1.416664,0.1041665 -0.458333,0.083333 -0.791666,0.5416658 -0.312499,0.4374991 -0.395832,1.1666651 -0.0625,0.729165 -0.0625,2.187496 0,0.937499 0.02083,1.312498 l 5.166658,-3.874994 Q 83.333319,9.8541511 82.812486,9.6041515 82.291654,9.3333186 80.999989,9.3333186 Z m 2.645829,2.6874954 -5.166658,3.874994 q 0.187499,0.916665 0.708332,1.187498 0.520832,0.25 1.812497,0.25 0.958332,0 1.416665,-0.08333 0.458332,-0.104167 0.770832,-0.541666 0.333332,-0.458333 0.395832,-1.187498 0.08333,-0.729166 0.08333,-2.187497 0,-0.937498 -0.02083,-1.312498 z"
         style="text-align:center;text-anchor:middle;fill:#ffffff"
         id="path689" /><path
         d="m 86.333316,13.333312 v -1.333331 h 6.666656 v 1.333331 z"
         style="text-align:center;text-anchor:middle;fill:#ffffff"
         id="path691" /><path
         d="m 98.333294,7.9999874 q 2.479166,0 3.229166,0.6666656 0.77083,0.6458323 0.77083,2.666662 0,2.020831 -0.77083,2.687496 -0.75,0.645833 -3.229166,0.645833 -1.749997,0 -2.208329,0.458332 -0.458333,0.458333 -0.458333,2.20833 h 6.666658 v 1.333331 h -7.999989 v -1.333331 q 0,-2.499996 0.749999,-3.249995 0.749998,-0.749999 3.249994,-0.749999 1.729166,0 2.187496,-0.354166 0.47917,-0.374999 0.47917,-1.645831 0,-1.270831 -0.47917,-1.624997 -0.45833,-0.3749994 -2.187496,-0.3749994 -1.687497,0 -2.187496,0.2708329 -0.479166,0.2708329 -0.479166,1.0624985 h -1.333331 q 0,-1.5416644 0.770832,-2.1041635 0.791665,-0.5624991 3.229161,-0.5624991 z"
         style="text-align:center;text-anchor:middle;fill:#ffffff"
         id="path693" /><path
         d="m 105.95828,8.1249872 q 0.64584,-0.1249998 1.70834,-0.1249998 1.06249,0 1.68749,0.1249998 0.64583,0.1041665 1.14583,0.3958327 0.5,0.2916662 0.72917,0.9374985 0.22917,0.6249986 0.33333,1.5208306 0.10417,0.895832 0.10417,2.354163 0,1.458331 -0.10417,2.354163 -0.10416,0.895832 -0.33333,1.541664 -0.22917,0.624999 -0.72917,0.916666 -0.5,0.291666 -1.14583,0.416666 -0.625,0.104166 -1.68749,0.104166 -1.0625,0 -1.70834,-0.104166 -0.62499,-0.125 -1.12499,-0.416666 -0.5,-0.291667 -0.72917,-0.916666 -0.22917,-0.645832 -0.33333,-1.541664 -0.10417,-0.895832 -0.10417,-2.354163 0,-1.458331 0.10417,-2.354163 0.10416,-0.895832 0.33333,-1.5208306 0.22917,-0.6458323 0.72917,-0.9374985 0.5,-0.2916662 1.12499,-0.3958327 z m 1.70834,1.2083314 q -0.95834,0 -1.41667,0.1041665 -0.45833,0.083333 -0.79166,0.5416658 -0.3125,0.4374991 -0.39584,1.1666651 -0.0625,0.729165 -0.0625,2.187496 0,0.937499 0.0208,1.312498 l 5.16665,-3.874994 q -0.1875,-0.9166649 -0.70833,-1.1666645 -0.52083,-0.2708329 -1.81249,-0.2708329 z m 2.64582,2.6874954 -5.16665,3.874994 q 0.1875,0.916665 0.70833,1.187498 0.52083,0.25 1.8125,0.25 0.95833,0 1.41666,-0.08333 0.45833,-0.104167 0.77083,-0.541666 0.33333,-0.458333 0.39583,-1.187498 0.0833,-0.729166 0.0833,-2.187497 0,-0.937498 -0.0208,-1.312498 z"
         style="text-align:center;text-anchor:middle;fill:#ffffff"
         id="path695" /><path
         d="m 114.33327,10.66665 q 0,-1.4999978 0.58334,-2.0833302 0.58333,-0.5833324 2.08333,-0.5833324 1.49999,0 2.08333,0.5833324 0.58333,0.5833324 0.58333,2.0833302 0,1.291664 -0.60417,1.812497 1.125,0.208333 1.52083,0.854165 0.41667,0.624999 0.41667,1.958331 0,2.062496 -0.77083,2.729162 -0.75,0.645832 -3.22916,0.645832 -2.47917,0 -3.25,-0.645832 -0.75,-0.666666 -0.75,-2.729162 0,-1.333332 0.39583,-1.958331 0.41667,-0.645832 1.54167,-0.854165 -0.60417,-0.520833 -0.60417,-1.812497 z m 3.70833,-1.0416652 q -0.29167,-0.2916662 -1.04166,-0.2916662 -0.75,0 -1.04167,0.2916662 -0.29167,0.2916662 -0.29167,1.0416652 0,0.749999 0.29167,1.041665 0.29167,0.291666 1.04167,0.291666 0.74999,0 1.04166,-0.291666 0.29167,-0.291666 0.29167,-1.041665 0,-0.749999 -0.29167,-1.0416652 z m 1.14583,4.0833272 q -0.45833,-0.375 -2.18749,-0.375 -1.72917,0 -2.20833,0.375 -0.45834,0.354166 -0.45834,1.624997 0,1.270831 0.45834,1.645831 0.47916,0.354166 2.20833,0.354166 1.72916,0 2.18749,-0.354166 0.47917,-0.375 0.47917,-1.645831 0,-1.270831 -0.47917,-1.624997 z"
         style="text-align:center;text-anchor:middle;fill:#ffffff"
         id="path697" /><path
         d="m 124.62493,8.1249872 q 0.64583,-0.1249998 1.70833,-0.1249998 1.06249,0 1.68749,0.1249998 0.64584,0.1041665 1.14584,0.3958327 0.49999,0.2916662 0.72916,0.9374985 0.22917,0.6249986 0.33333,1.5208306 0.10417,0.895832 0.10417,2.354163 0,1.458331 -0.10417,2.354163 -0.10416,0.895832 -0.33333,1.541664 -0.22917,0.624999 -0.72916,0.916666 -0.5,0.291666 -1.14584,0.416666 -0.625,0.104166 -1.68749,0.104166 -1.0625,0 -1.70833,-0.104166 -0.625,-0.125 -1.125,-0.416666 -0.5,-0.291667 -0.72917,-0.916666 -0.22916,-0.645832 -0.33333,-1.541664 -0.10417,-0.895832 -0.10417,-2.354163 0,-1.458331 0.10417,-2.354163 0.10417,-0.895832 0.33333,-1.5208306 0.22917,-0.6458323 0.72917,-0.9374985 0.5,-0.2916662 1.125,-0.3958327 z m 1.70833,1.2083314 q -0.95834,0 -1.41667,0.1041665 -0.45833,0.083333 -0.79166,0.5416658 -0.3125,0.4374991 -0.39584,1.1666651 -0.0625,0.729165 -0.0625,2.187496 0,0.937499 0.0208,1.312498 l 5.16666,-3.874994 q -0.1875,-0.9166649 -0.70834,-1.1666645 -0.52083,-0.2708329 -1.81249,-0.2708329 z m 2.64583,2.6874954 -5.16666,3.874994 q 0.1875,0.916665 0.70833,1.187498 0.52083,0.25 1.8125,0.25 0.95833,0 1.41666,-0.08333 0.45833,-0.104167 0.77083,-0.541666 0.33334,-0.458333 0.39584,-1.187498 0.0833,-0.729166 0.0833,-2.187497 0,-0.937498 -0.0208,-1.312498 z"
         style="text-align:center;text-anchor:middle;fill:#ffffff"
         id="path699" /></g><path
       id="rect857"
       style="fill:#ffffff;stroke-width:0.264583;stroke-linejoin:round;paint-order:stroke markers fill"
       d="m 4.4979168,0.52916667 c -0.146579,0 -0.2645834,0.11800445 -0.2645834,0.26458333 v 3.7041666 c 0,0.146579 0.1180044,0.2645834 0.2645834,0.2645834 h 1.8520833 c 0.1465789,0 0.2645833,-0.1180044 0.2645833,-0.2645834 V 0.79375 c 0,-0.14657888 -0.1180044,-0.26458333 -0.2645833,-0.26458333 z m 0,0.26458333 h 1.8520833 v 3.175 H 4.4979168 Z m 0.9260416,3.4395833 c 0.073063,0 0.1322917,0.059229 0.1322917,0.1322917 0,0.073063 -0.059229,0.1322916 -0.1322917,0.1322916 -0.073063,0 -0.1322916,-0.059229 -0.1322916,-0.1322916 0,-0.073063 0.059229,-0.1322917 0.1322916,-0.1322917 z"
       sodipodi:nodetypes="ssssssssscccccsssss" /><rect
       style="fill:#ffffff;stroke-width:0.264583;stroke-linejoin:round;paint-order:stroke markers fill"
       id="rect1016"
       width="1.3229165"
       height="0.26458323"
       x="7.1437502"
       y="2.1166666" /><rect
       style="fill:#ffffff;stroke-width:0.264583;stroke-linejoin:round;paint-order:stroke markers fill"
       id="rect1018"
       width="1.3229165"
       height="0.26458329"
       x="7.1437502"
       y="2.9104166" /><g
       aria-label="chrisxdeboy@gmail.com"
       transform="matrix(0.26458334,0,0,0.26458334,4.8075971,-0.97013115)"
       id="text1105"
       style="font-size:21.3333px;font-family:Liver;-inkscape-font-specification:Liver;text-align:center;white-space:pre;shape-inside:url(#rect1107);display:inline;fill:#ffffff;stroke-linejoin:round;paint-order:stroke markers fill"><path
         d="m 19.162883,30.66665 q 1.749997,0 2.437496,0.541666 0.708332,0.520832 0.854165,2.124996 H 21.10038 q -0.125,-0.833332 -0.541666,-1.083331 -0.395833,-0.25 -1.395831,-0.25 -1.270832,0 -1.645831,0.479166 -0.354166,0.458333 -0.354166,2.187497 0,1.729163 0.354166,2.208329 0.374999,0.458333 1.645831,0.458333 0.999998,0 1.395831,-0.25 0.416666,-0.249999 0.541666,-1.083331 h 1.354164 q -0.145833,1.604164 -0.854165,2.14583 -0.687499,0.520832 -2.437496,0.520832 -2.020831,0 -2.687496,-0.749999 -0.645833,-0.770832 -0.645833,-3.249994 0,-2.479163 0.645833,-3.229162 0.666665,-0.770832 2.687496,-0.770832 z"
         id="path748" /><path
         d="m 23.829542,27.999987 h 1.333331 v 4.145827 q 0.3125,-0.833332 0.916666,-1.145831 0.604165,-0.333333 1.58333,-0.333333 1.666664,0 2.249997,0.791665 0.583332,0.770832 0.583332,3.208329 v 3.999993 h -1.333331 v -3.999993 q 0,-1.729164 -0.374999,-2.187497 -0.354167,-0.479166 -1.624998,-0.479166 -1.270831,0 -1.645831,0.479166 -0.354166,0.458333 -0.354166,2.187497 v 3.999993 h -1.333331 z"
         id="path750" /><path
         d="m 31.82953,30.66665 h 1.333331 v 1.166665 q 0.229166,-0.645833 0.687499,-0.895832 0.458332,-0.25 1.229165,-0.270833 h 0.08333 q 0.916665,0 1.374998,0.562499 0.458332,0.541666 0.583332,2.104163 H 35.76702 q -0.08333,-0.812498 -0.374999,-1.062498 -0.270833,-0.270833 -0.895832,-0.270833 -0.770832,0 -1.041665,0.458333 -0.270833,0.458332 -0.291666,1.999996 v 0.208334 3.999993 H 31.82953 Z"
         id="path752" /><path
         d="m 38.496186,27.999987 h 1.333331 v 1.333332 h -1.333331 z m 0,2.666663 h 1.333331 v 7.999987 h -1.333331 z"
         id="path754" /><path
         d="m 44.496176,30.66665 q 0.895832,0 1.562498,0.166666 0.666666,0.166667 0.895832,0.333333 l 0.208333,0.166666 v 0.666666 h -2.666663 q -1.333331,0 -1.666664,0.104167 -0.333332,0.08333 -0.333332,0.562499 0,0.479166 0.333332,0.583332 0.333333,0.08333 1.666664,0.08333 1.958331,0 2.64583,0.583333 0.687499,0.562499 0.687499,2.08333 0,1.520831 -0.687499,2.104163 -0.687499,0.562499 -2.64583,0.562499 -0.895831,0 -1.729163,-0.166666 -0.833332,-0.166667 -1.229165,-0.333333 l -0.375,-0.166666 v -0.666666 h 3.333328 q 1.208332,0 1.604165,-0.270833 0.395832,-0.291666 0.395832,-1.062498 0,-0.770832 -0.395832,-1.041665 -0.395833,-0.291666 -1.604165,-0.291666 -1.916663,0 -2.624995,-0.458333 -0.708333,-0.479166 -0.708333,-1.541664 0,-1.062499 0.708333,-1.520831 0.708332,-0.479166 2.624995,-0.479166 z"
         id="path756" /><path
         d="m 49.162837,30.66665 h 1.333331 l 1.999997,2.999995 1.999997,-2.999995 h 1.333331 l -2.666662,3.999994 2.666662,3.999993 h -1.333331 l -1.999997,-2.999995 -1.999997,2.999995 h -1.333331 l 2.666662,-3.999993 z"
         id="path758" /><path
         d="m 63.829478,27.999987 v 10.66665 h -1.333331 v -1.479164 q -0.3125,0.833332 -0.916666,1.166665 -0.604165,0.312499 -1.58333,0.312499 -1.666664,0 -2.249997,-0.770832 -0.583332,-0.791665 -0.583332,-3.229161 0,-2.437497 0.583332,-3.208329 0.583333,-0.791665 2.249997,-0.791665 0.979165,0 1.58333,0.333333 0.604166,0.312499 0.916666,1.145831 v -4.145827 z m -1.708331,4.47916 q -0.354166,-0.479166 -1.624997,-0.479166 -1.270832,0 -1.645831,0.479166 -0.354166,0.458333 -0.354166,2.187497 0,1.729163 0.354166,2.208329 0.374999,0.458333 1.645831,0.458333 1.270831,0 1.624997,-0.458333 0.375,-0.479166 0.375,-2.208329 0,-1.729164 -0.375,-2.187497 z"
         id="path760" /><path
         d="m 65.808643,31.437482 q 0.666665,-0.770832 2.687495,-0.770832 2.02083,0 2.666663,0.770832 0.666665,0.749999 0.666665,3.229162 h -5.333325 q 0,1.729163 0.354167,2.208329 0.374999,0.458333 1.64583,0.458333 0.999999,0 1.395831,-0.25 0.416666,-0.249999 0.541666,-1.083331 H 71.7878 q -0.145833,1.604164 -0.854166,2.14583 -0.687498,0.520832 -2.437496,0.520832 -2.02083,0 -2.687495,-0.749999 -0.645833,-0.770832 -0.645833,-3.249994 0,-2.479163 0.645833,-3.229162 z m 2.687495,0.562499 q -1.020831,0 -1.416664,0.270833 -0.395833,0.270833 -0.520833,1.062498 h 3.874994 q -0.125,-0.833332 -0.520832,-1.083331 -0.375,-0.25 -1.416665,-0.25 z"
         id="path762" /><path
         d="m 73.162799,27.999987 h 1.333331 v 4.145827 q 0.3125,-0.833332 0.916665,-1.145831 0.604166,-0.333333 1.583331,-0.333333 1.666664,0 2.249997,0.791665 0.583332,0.770832 0.583332,3.208329 0,2.437496 -0.583332,3.229161 -0.583333,0.770832 -2.249997,0.770832 -0.979165,0 -1.583331,-0.312499 -0.604165,-0.333333 -0.916665,-1.166665 v 1.479164 h -1.333331 z m 4.958325,4.47916 q -0.354166,-0.479166 -1.624997,-0.479166 -1.270831,0 -1.645831,0.479166 -0.354166,0.458333 -0.354166,2.187497 0,1.729163 0.354166,2.208329 0.375,0.458333 1.645831,0.458333 1.270831,0 1.624997,-0.458333 0.375,-0.479166 0.375,-2.208329 0,-1.729164 -0.375,-2.187497 z"
         id="path764" /><path
         d="m 81.808616,37.916638 q -0.645832,-0.770832 -0.645832,-3.249994 0,-2.479163 0.645832,-3.229162 0.666665,-0.770832 2.687496,-0.770832 2.02083,0 2.666662,0.770832 0.666666,0.749999 0.666666,3.229162 0,2.479162 -0.666666,3.249994 -0.645832,0.749999 -2.666662,0.749999 -2.020831,0 -2.687496,-0.749999 z m 4.312493,-5.437491 q -0.354166,-0.479166 -1.624997,-0.479166 -1.270832,0 -1.645831,0.479166 -0.354166,0.458333 -0.354166,2.187497 0,1.729163 0.354166,2.208329 0.374999,0.458333 1.645831,0.458333 1.270831,0 1.624997,-0.458333 0.374999,-0.479166 0.374999,-2.208329 0,-1.729164 -0.374999,-2.187497 z"
         id="path766" /><path
         d="m 89.162776,30.66665 h 1.333331 v 3.999994 q 0,1.729163 0.354166,2.208329 0.375,0.458333 1.645831,0.458333 1.270831,0 1.624997,-0.458333 0.375,-0.479166 0.375,-2.208329 V 30.66665 h 1.333331 v 7.999987 q 0,2.479163 -0.666666,3.229162 -0.645832,0.770832 -2.666662,0.770832 -0.895832,0 -1.729164,-0.166667 -0.833332,-0.166666 -1.229165,-0.333332 L 89.162776,41.999965 V 41.3333 h 3.333328 q 1.270831,0 1.624997,-0.479166 0.375,-0.458333 0.375,-2.187497 v -1.479164 q -0.3125,0.833332 -0.916665,1.166665 -0.604166,0.312499 -1.583331,0.312499 -1.666664,0 -2.249997,-0.770832 -0.583332,-0.791665 -0.583332,-3.229161 z"
         id="path768" /><path
         d="m 97.225261,35.374976 q -0.0625,-0.791666 -0.0625,-2.041664 0,-1.249998 0.0625,-2.02083 0.0625,-0.791665 0.291666,-1.437498 0.229166,-0.645832 0.541666,-0.958331 0.333332,-0.333333 0.979165,-0.5625 0.645832,-0.229166 1.416662,-0.291666 0.79167,-0.0625 2.04167,-0.0625 1.24999,0 2.02083,0.0625 0.79166,0.0625 1.43749,0.291666 0.64584,0.229167 0.95834,0.5625 0.33333,0.312499 0.56249,0.958331 0.22917,0.645833 0.29167,1.437498 0.0625,0.770832 0.0625,2.02083 0,1.499998 -0.58333,2.08333 -0.58333,0.583333 -2.08333,0.583333 h -1.33333 v -0.499999 q -0.33334,0.499999 -1.83333,0.499999 -1.14584,0 -1.66667,-0.583333 -0.499997,-0.604165 -0.499997,-2.08333 0,-1.499997 0.583337,-2.08333 0.58333,-0.583332 2.08333,-0.583332 1.49999,0 2.08333,0.583332 0.58333,0.583333 0.58333,2.08333 v 1.333332 q 0.75,0 1.04166,-0.291667 0.29167,-0.291666 0.29167,-1.041665 0,-0.999998 -0.0417,-1.562497 -0.0208,-0.583333 -0.1875,-1.083332 -0.16666,-0.520832 -0.39583,-0.729165 -0.20833,-0.229167 -0.72917,-0.395833 -0.49999,-0.166667 -1.08333,-0.1875 -0.5625,-0.04167 -1.56249,-0.04167 -1,0 -1.58334,0.04167 -0.56249,0.02083 -1.083327,0.1875 -0.499999,0.166666 -0.729165,0.395833 -0.208333,0.208333 -0.375,0.729165 -0.166666,0.499999 -0.208333,1.083332 -0.02083,0.562499 -0.02083,1.562497 0,0.999999 0.02083,1.583331 0.04167,0.562499 0.208333,1.083332 0.166667,0.499999 0.375,0.729165 0.229166,0.208333 0.729165,0.375 0.520837,0.166666 1.083327,0.208333 0.58334,0.02083 1.58334,0.02083 h 3.33332 v 0.666666 q -1.33333,0.666665 -3.33332,0.666665 -1.25,0 -2.04167,-0.0625 -0.77083,-0.0625 -1.416662,-0.291666 -0.645833,-0.229166 -0.979165,-0.541666 -0.3125,-0.333333 -0.541666,-0.979165 -0.229167,-0.645832 -0.291666,-1.416664 z m 6.312489,-3.083329 q -0.29167,-0.291666 -1.04166,-0.291666 -0.75,0 -1.04167,0.291666 -0.29167,0.291666 -0.29167,1.041665 0,0.749999 0.29167,1.041665 0.29167,0.291667 1.04167,0.291667 0.74999,0 1.04166,-0.291667 0.29167,-0.291666 0.29167,-1.041665 0,-0.749999 -0.29167,-1.041665 z"
         id="path770" /><path
         d="m 111.99607,30.66665 q 0.97917,0 1.58334,0.333333 0.60416,0.312499 0.91666,1.145831 V 30.66665 h 1.33333 v 7.999987 q 0,2.479163 -0.66666,3.229162 -0.64584,0.770832 -2.66667,0.770832 -1.74999,0 -2.45833,-0.541666 -0.68749,-0.520832 -0.83333,-2.124997 h 1.35417 q 0.125,0.833332 0.52083,1.083332 0.41667,0.25 1.41666,0.25 1.27083,0 1.625,-0.479166 0.375,-0.458333 0.375,-2.187497 v -1.479164 q -0.3125,0.833332 -0.91666,1.166665 -0.60417,0.312499 -1.58334,0.312499 -1.66666,0 -2.24999,-0.770832 -0.58333,-0.791665 -0.58333,-3.229161 0,-2.437497 0.58333,-3.208329 0.58333,-0.791665 2.24999,-0.791665 z m 2.125,1.812497 q -0.35417,-0.479166 -1.625,-0.479166 -1.27083,0 -1.64583,0.479166 -0.35416,0.458333 -0.35416,2.187497 0,1.729163 0.35416,2.208329 0.375,0.458333 1.64583,0.458333 1.27083,0 1.625,-0.458333 0.375,-0.479166 0.375,-2.208329 0,-1.729164 -0.375,-2.187497 z"
         id="path772" /><path
         d="m 117.16273,30.66665 h 1.33333 v 1.479164 q 0.33333,-0.874998 0.875,-1.166665 0.54167,-0.312499 1.79166,-0.312499 1.14584,0 1.70833,0.395833 0.58334,0.374999 0.79167,1.416664 0.22917,-1.062498 0.85417,-1.437498 0.64583,-0.374999 1.97916,-0.374999 1.54166,0 2.10416,0.791665 0.5625,0.770832 0.5625,3.208329 v 3.999993 h -1.33333 v -3.999993 q 0,-1.729164 -0.375,-2.187497 -0.35417,-0.479166 -1.625,-0.479166 -1.27083,0 -1.64583,0.479166 -0.35416,0.458333 -0.35416,2.187497 v 3.999993 h -1.33333 v -3.999993 q 0,-1.729164 -0.375,-2.187497 -0.35417,-0.479166 -1.625,-0.479166 -1.27083,0 -1.64583,0.479166 -0.35417,0.458333 -0.35417,2.187497 v 3.999993 h -1.33333 z"
         id="path774" /><path
         d="m 131.16271,31.333315 q 0.0833,-0.08333 0.25,-0.187499 0.16666,-0.104167 0.83333,-0.291666 0.6875,-0.1875 1.58333,-0.1875 1.08333,0 1.66667,0.166666 0.58333,0.166667 0.97916,0.749999 0.41667,0.583332 0.54167,1.604164 0.14583,1.020832 0.14583,2.812496 v 2.666662 h -1.33333 v -1.083331 q -0.60417,1.083331 -2.5,1.083331 -1.625,0 -2.22916,-0.583332 -0.60417,-0.583333 -0.60417,-2.08333 0,-1.499998 0.60417,-2.08333 0.60416,-0.583333 2.22916,-0.583333 1.79167,0 2.41666,0.937499 -0.16666,-1.312498 -0.62499,-1.791664 -0.4375,-0.479166 -1.29167,-0.479166 h -2.66666 z m 4.27083,3.624995 q -0.39584,-0.291666 -1.60417,-0.291666 -1.20833,0 -1.60416,0.291666 -0.39584,0.270833 -0.39584,1.041665 0,0.770832 0.39584,1.062498 0.39583,0.270833 1.60416,0.270833 1.20833,0 1.60417,-0.270833 0.39583,-0.291666 0.39583,-1.062498 0,-0.770832 -0.39583,-1.041665 z"
         id="path776" /><path
         d="m 138.49603,27.999987 h 1.33333 v 1.333332 h -1.33333 z m 0,2.666663 h 1.33333 v 7.999987 h -1.33333 z"
         id="path778" /><path
         d="m 142.49602,27.999987 v 5.333325 q 0,1.812497 0.125,2.687496 0.14584,0.854165 0.39584,1.083332 0.25,0.229166 0.81249,0.229166 v 1.333331 q -1.08333,0 -1.60416,-0.354166 -0.52083,-0.374999 -0.79167,-1.499998 -0.27083,-1.145831 -0.27083,-3.479161 v -5.333325 z"
         id="path780" /><path
         d="m 145.16268,37.333306 h 1.33334 v 1.333331 h -1.33334 z"
         id="path782" /><path
         d="m 151.16267,30.66665 q 1.75,0 2.4375,0.541666 0.70833,0.520832 0.85416,2.124996 h -1.35416 q -0.125,-0.833332 -0.54167,-1.083331 -0.39583,-0.25 -1.39583,-0.25 -1.27083,0 -1.64583,0.479166 -0.35417,0.458333 -0.35417,2.187497 0,1.729163 0.35417,2.208329 0.375,0.458333 1.64583,0.458333 1,0 1.39583,-0.25 0.41667,-0.249999 0.54167,-1.083331 h 1.35416 q -0.14583,1.604164 -0.85416,2.14583 -0.6875,0.520832 -2.4375,0.520832 -2.02083,0 -2.6875,-0.749999 -0.64583,-0.770832 -0.64583,-3.249994 0,-2.479163 0.64583,-3.229162 0.66667,-0.770832 2.6875,-0.770832 z"
         id="path784" /><path
         d="m 156.47517,37.916638 q -0.64583,-0.770832 -0.64583,-3.249994 0,-2.479163 0.64583,-3.229162 0.66667,-0.770832 2.6875,-0.770832 2.02083,0 2.66666,0.770832 0.66667,0.749999 0.66667,3.229162 0,2.479162 -0.66667,3.249994 -0.64583,0.749999 -2.66666,0.749999 -2.02083,0 -2.6875,-0.749999 z m 4.3125,-5.437491 q -0.35417,-0.479166 -1.625,-0.479166 -1.27083,0 -1.64583,0.479166 -0.35417,0.458333 -0.35417,2.187497 0,1.729163 0.35417,2.208329 0.375,0.458333 1.64583,0.458333 1.27083,0 1.625,-0.458333 0.375,-0.479166 0.375,-2.208329 0,-1.729164 -0.375,-2.187497 z"
         id="path786" /><path
         d="m 163.82933,30.66665 h 1.33333 v 1.479164 q 0.33333,-0.874998 0.875,-1.166665 0.54166,-0.312499 1.79166,-0.312499 1.14583,0 1.70833,0.395833 0.58333,0.374999 0.79167,1.416664 0.22916,-1.062498 0.85416,-1.437498 0.64583,-0.374999 1.97916,-0.374999 1.54167,0 2.10417,0.791665 0.5625,0.770832 0.5625,3.208329 v 3.999993 h -1.33333 v -3.999993 q 0,-1.729164 -0.375,-2.187497 -0.35417,-0.479166 -1.625,-0.479166 -1.27083,0 -1.64583,0.479166 -0.35417,0.458333 -0.35417,2.187497 v 3.999993 h -1.33333 v -3.999993 q 0,-1.729164 -0.375,-2.187497 -0.35416,-0.479166 -1.625,-0.479166 -1.27083,0 -1.64583,0.479166 -0.35416,0.458333 -0.35416,2.187497 v 3.999993 h -1.33333 z"
         id="path788" /></g><rect
       style="fill:#ffffff;stroke-width:0.264583;stroke-linejoin:round;paint-order:stroke markers fill"
       id="rect1111"
       width="1.3229165"
       height="0.26458323"
       x="7.1437502"
       y="7.4083333" /><rect
       style="fill:#ffffff;stroke-width:0.264583;stroke-linejoin:round;paint-order:stroke markers fill"
       id="rect1113"
       width="1.3229165"
       height="0.26458329"
       x="7.1437502"
       y="8.2020836" /><path
       id="rect1863"
       style="fill:#ffffff;stroke:none;stroke-width:0.264583;stroke-linecap:round;stroke-linejoin:round;paint-order:stroke markers fill"
       d="M 1.2702067,6.3500001 C 2.0968349,7.0113126 2.9234729,7.672618 3.7501588,8.3338584 H 3.9217245 C 4.7484416,7.672657 5.5749972,7.0112487 6.4016765,6.3500001 Z M 1.0583333,6.518982 V 9.3560182 L 2.8303182,7.9375001 Z M 6.6145834,6.5194988 4.8420818,7.9375001 6.6145834,9.3555014 Z M 3.0421916,8.1075156 1.2702067,9.5250001 H 6.4016765 L 4.6296916,8.1075156 4.0509156,8.5705364 c -0.023336,0.018645 -0.052296,0.028844 -0.082165,0.028939 H 3.7052003 c -0.030579,3.78e-4 -0.060344,-0.00985 -0.084233,-0.028939 z" /><g
       id="g391"
       transform="matrix(0.02269739,0,0,0.02269739,1.0583334,10.848378)"
       style="fill:#ffffff"><path
         d="M 216.85634,16.596603 C 200.285,8.8432867 182.56614,3.2084988 164.04156,0 c -2.27504,4.1131811 -4.93294,9.6454991 -6.76546,14.046438 -19.69211,-2.961448 -39.20313,-2.961448 -58.533084,0 C 96.910842,9.6454991 94.192584,4.1131811 91.897189,0 73.352607,3.2084988 55.613395,8.8639912 39.042058,16.637661 5.6175229,67.146514 -3.4433191,116.40081 1.0871107,164.95572 23.25602,181.51091 44.740363,191.5677 65.862133,198.14858 c 5.215082,-7.17745 9.86623,-14.80725 13.873081,-22.84832 -7.631195,-2.89969 -14.940242,-6.47806 -21.846427,-10.6323 1.832174,-1.35737 3.624343,-2.77651 5.355803,-4.2367 42.12282,19.70193 87.89034,19.70193 129.50993,0 1.75182,1.46019 3.54363,2.87933 5.35581,4.2367 -6.92654,4.1746 -14.25559,7.75297 -21.88679,10.653 4.00685,8.02037 8.638,15.67087 13.87308,22.84797 21.14213,-6.58088 42.6464,-16.63731 64.81533,-33.21321 5.3158,-56.28752 -9.08086,-105.089477 -38.05561,-148.359117 z M 85.473875,135.09489 c -12.644847,0 -23.014653,-11.80473 -23.014653,-26.17999 0,-14.375253 10.148373,-26.200341 23.014653,-26.200341 12.866631,0 23.236085,11.804384 23.014655,26.200341 0.02,14.37526 -10.148024,26.17999 -23.014655,26.17999 z m 85.051365,0 c -12.64485,0 -23.01466,-11.80473 -23.01466,-26.17999 0,-14.375253 10.14803,-26.200341 23.01466,-26.200341 12.86628,0 23.23608,11.804384 23.01465,26.200341 0,14.37526 -10.14837,26.17999 -23.01465,26.17999 z"
         fill="#5865f2"
         fill-rule="nonzero"
         id="path389"
         style="fill:#ffffff" /></g><rect
       style="fill:#ffffff;stroke-width:0.264583;stroke-linejoin:round;paint-order:stroke markers fill"
       id="rect609"
       width="1.3229165"
       height="0.26458323"
       x="7.1437502"
       y="12.7" /><rect
       style="fill:#ffffff;stroke-width:0.264583;stroke-linejoin:round;paint-order:stroke markers fill"
       id="rect611"
       width="1.3229165"
       height="0.26458329"
       x="7.1437502"
       y="13.49375" /><g
       aria-label="eightbit_dboy"
       transform="matrix(0.26458334,0,0,0.26458334,-4.7173882,4.3215356)"
       id="text615"
       style="font-size:21.3333px;font-family:Liver;-inkscape-font-specification:Liver;text-align:center;white-space:pre;shape-inside:url(#rect617);display:inline;fill:#ffffff;stroke-linejoin:round;paint-order:stroke markers fill"><path
         d="m 52.47533,31.437482 q 0.666666,-0.770832 2.687496,-0.770832 2.02083,0 2.666662,0.770832 0.666666,0.749999 0.666666,3.229162 h -5.333325 q 0,1.729163 0.354166,2.208329 0.374999,0.458333 1.645831,0.458333 0.999998,0 1.395831,-0.25 0.416666,-0.249999 0.541666,-1.083331 h 1.354164 q -0.145833,1.604164 -0.854165,2.14583 -0.687499,0.520832 -2.437496,0.520832 -2.02083,0 -2.687496,-0.749999 -0.645832,-0.770832 -0.645832,-3.249994 0,-2.479163 0.645832,-3.229162 z m 2.687496,0.562499 q -1.020832,0 -1.416665,0.270833 -0.395832,0.270833 -0.520832,1.062498 h 3.874994 q -0.125,-0.833332 -0.520833,-1.083331 -0.374999,-0.25 -1.416664,-0.25 z"
         id="path721" /><path
         d="m 59.829485,27.999987 h 1.333331 v 1.333332 h -1.333331 z m 0,2.666663 h 1.333331 v 7.999987 h -1.333331 z"
         id="path723" /><path
         d="m 65.329476,30.66665 q 0.979165,0 1.583331,0.333333 0.604166,0.312499 0.916665,1.145831 V 30.66665 h 1.333332 v 7.999987 q 0,2.479163 -0.666666,3.229162 -0.645832,0.770832 -2.666662,0.770832 -1.749998,0 -2.45833,-0.541666 -0.687499,-0.520832 -0.833332,-2.124997 h 1.354165 q 0.124999,0.833332 0.520832,1.083332 0.416666,0.25 1.416665,0.25 1.270831,0 1.624997,-0.479166 0.374999,-0.458333 0.374999,-2.187497 v -1.479164 q -0.312499,0.833332 -0.916665,1.166665 -0.604166,0.312499 -1.583331,0.312499 -1.666664,0 -2.249996,-0.770832 -0.583333,-0.791665 -0.583333,-3.229161 0,-2.437497 0.583333,-3.208329 0.583332,-0.791665 2.249996,-0.791665 z m 2.124997,1.812497 q -0.354166,-0.479166 -1.624997,-0.479166 -1.270832,0 -1.645831,0.479166 -0.354166,0.458333 -0.354166,2.187497 0,1.729163 0.354166,2.208329 0.374999,0.458333 1.645831,0.458333 1.270831,0 1.624997,-0.458333 0.374999,-0.479166 0.374999,-2.208329 0,-1.729164 -0.374999,-2.187497 z"
         id="path725" /><path
         d="m 70.496135,27.999987 h 1.333331 v 4.145827 q 0.3125,-0.833332 0.916666,-1.145831 0.604165,-0.333333 1.58333,-0.333333 1.666664,0 2.249997,0.791665 0.583332,0.770832 0.583332,3.208329 v 3.999993 H 75.82946 v -3.999993 q 0,-1.729164 -0.374999,-2.187497 -0.354167,-0.479166 -1.624998,-0.479166 -1.270831,0 -1.645831,0.479166 -0.354166,0.458333 -0.354166,2.187497 v 3.999993 h -1.333331 z"
         id="path727" /><path
         d="m 79.829455,27.999987 h 1.333331 v 2.666663 h 1.333331 v 1.333331 h -1.333331 v 1.312498 q 0,1.812497 0.125,2.687496 0.145833,0.854165 0.395833,1.083331 0.249999,0.229167 0.812498,0.229167 v 1.354164 Q 81.412786,38.645804 80.891953,38.291638 80.371121,37.937472 80.100288,36.79164 79.829455,35.645809 79.829455,33.312479 V 31.999981 H 78.496124 V 30.66665 h 1.333331 z"
         id="path729" /><path
         d="m 83.829448,27.999987 h 1.333331 v 4.145827 q 0.3125,-0.833332 0.916665,-1.145831 0.604166,-0.333333 1.583331,-0.333333 1.666664,0 2.249997,0.791665 0.583332,0.770832 0.583332,3.208329 0,2.437496 -0.583332,3.229161 -0.583333,0.770832 -2.249997,0.770832 -0.979165,0 -1.583331,-0.312499 -0.604165,-0.333333 -0.916665,-1.166665 v 1.479164 h -1.333331 z m 4.958326,4.47916 q -0.354167,-0.479166 -1.624998,-0.479166 -1.270831,0 -1.645831,0.479166 -0.354166,0.458333 -0.354166,2.187497 0,1.729163 0.354166,2.208329 0.375,0.458333 1.645831,0.458333 1.270831,0 1.624998,-0.458333 0.374999,-0.479166 0.374999,-2.208329 0,-1.729164 -0.374999,-2.187497 z"
         id="path731" /><path
         d="m 91.829437,27.999987 h 1.333331 v 1.333332 h -1.333331 z m 0,2.666663 h 1.333331 v 7.999987 h -1.333331 z"
         id="path733" /><path
         d="m 95.829428,27.999987 h 1.333331 v 2.666663 h 1.333332 v 1.333331 h -1.333332 v 1.312498 q 0,1.812497 0.125,2.687496 0.145833,0.854165 0.395833,1.083331 0.249999,0.229167 0.812499,0.229167 v 1.354164 Q 97.412759,38.645804 96.891926,38.291638 96.371094,37.937472 96.100261,36.79164 95.829428,35.645809 95.829428,33.312479 V 31.999981 H 94.496097 V 30.66665 h 1.333331 z"
         id="path735" /><path
         d="m 99.829421,39.999968 v -1.333331 h 7.999989 v 1.333331 z"
         id="path737" /><path
         d="m 115.8294,27.999987 v 10.66665 h -1.33333 v -1.479164 q -0.3125,0.833332 -0.91667,1.166665 -0.60416,0.312499 -1.58333,0.312499 -1.66666,0 -2.25,-0.770832 -0.58333,-0.791665 -0.58333,-3.229161 0,-2.437497 0.58333,-3.208329 0.58334,-0.791665 2.25,-0.791665 0.97917,0 1.58333,0.333333 0.60417,0.312499 0.91667,1.145831 v -4.145827 z m -1.70833,4.47916 q -0.35417,-0.479166 -1.625,-0.479166 -1.27083,0 -1.64583,0.479166 -0.35417,0.458333 -0.35417,2.187497 0,1.729163 0.35417,2.208329 0.375,0.458333 1.64583,0.458333 1.27083,0 1.625,-0.458333 0.375,-0.479166 0.375,-2.208329 0,-1.729164 -0.375,-2.187497 z"
         id="path739" /><path
         d="m 117.16273,27.999987 h 1.33333 v 4.145827 q 0.3125,-0.833332 0.91666,-1.145831 0.60417,-0.333333 1.58333,-0.333333 1.66667,0 2.25,0.791665 0.58333,0.770832 0.58333,3.208329 0,2.437496 -0.58333,3.229161 -0.58333,0.770832 -2.25,0.770832 -0.97916,0 -1.58333,-0.312499 -0.60416,-0.333333 -0.91666,-1.166665 v 1.479164 h -1.33333 z m 4.95832,4.47916 q -0.35416,-0.479166 -1.625,-0.479166 -1.27083,0 -1.64583,0.479166 -0.35416,0.458333 -0.35416,2.187497 0,1.729163 0.35416,2.208329 0.375,0.458333 1.64583,0.458333 1.27084,0 1.625,-0.458333 0.375,-0.479166 0.375,-2.208329 0,-1.729164 -0.375,-2.187497 z"
         id="path741" /><path
         d="m 125.80855,37.916638 q -0.64583,-0.770832 -0.64583,-3.249994 0,-2.479163 0.64583,-3.229162 0.66667,-0.770832 2.6875,-0.770832 2.02083,0 2.66666,0.770832 0.66667,0.749999 0.66667,3.229162 0,2.479162 -0.66667,3.249994 -0.64583,0.749999 -2.66666,0.749999 -2.02083,0 -2.6875,-0.749999 z m 4.31249,-5.437491 q -0.35416,-0.479166 -1.62499,-0.479166 -1.27083,0 -1.64583,0.479166 -0.35417,0.458333 -0.35417,2.187497 0,1.729163 0.35417,2.208329 0.375,0.458333 1.64583,0.458333 1.27083,0 1.62499,-0.458333 0.375,-0.479166 0.375,-2.208329 0,-1.729164 -0.375,-2.187497 z"
         id="path743" /><path
         d="m 133.1627,30.66665 h 1.33334 v 3.999994 q 0,1.729163 0.35416,2.208329 0.375,0.458333 1.64583,0.458333 1.27083,0 1.625,-0.458333 0.375,-0.479166 0.375,-2.208329 V 30.66665 h 1.33333 v 7.999987 q 0,2.479163 -0.66667,3.229162 -0.64583,0.770832 -2.66666,0.770832 -0.89583,0 -1.72916,-0.166667 -0.83333,-0.166666 -1.22917,-0.333332 l -0.375,-0.166667 V 41.3333 h 3.33333 q 1.27083,0 1.625,-0.479166 0.375,-0.458333 0.375,-2.187497 v -1.479164 q -0.3125,0.833332 -0.91667,1.166665 -0.60416,0.312499 -1.58333,0.312499 -1.66666,0 -2.24999,-0.770832 -0.58334,-0.791665 -0.58334,-3.229161 z"
         id="path745" /></g></g></svg>
